<?xml version="1.0" encoding="UTF-8"?><svg id="Logos" xmlns="http://www.w3.org/2000/svg" width="11.02in" height="1.84in" viewBox="0 0 793.33 132.31"><defs><style>.cls-1{fill:#009d4c;}.cls-2{fill:#fff;}</style></defs><path class="cls-2" d="M627.9,99.93l-45.45.24-8.09,18.67h-22.97l44.7-103.14h18.47l44.74,103.14h-23.2M605.18,47.44l-14.91,34.71h29.89"/><polygon class="cls-2" points="369.28 15.7 397.25 83.14 424.25 15.7 449.24 15.7 407.15 118.73 387.73 118.91 344.29 15.7 369.28 15.7"/><polygon class="cls-2" points="535.19 15.7 535.19 36.52 487.22 36.52 487.22 56.36 525.7 56.36 527.21 56.4 527.2 57.85 527.2 77.19 488.72 77.19 487.2 77.19 487.22 78.67 487.22 98.01 535.19 98.01 535.19 118.84 464.23 118.84 464.23 15.7 535.19 15.7"/><path class="cls-2" d="M161.15,13.99c44.4-5.02,79.29,39.65,56.36,79.73-20.47,35.78-76.15,36.52-97.54,1.24s2.27-76.57,41.18-80.97ZM201.53,67.41c0-18.15-14.83-32.87-33.13-32.87s-33.13,14.72-33.13,32.87,14.83,32.87,33.13,32.87,33.13-14.72,33.13-32.87Z"/><path class="cls-2" d="M28.87,109.95c9.19,8.04,23.05,11.88,38.02,10.54,16.07-1.45,33.25-12.35,35-30.37.63-6.45-1.07-12.6-4.91-17.77-4.24-5.7-11.04-10.05-19.69-12.57-1.64-.48-4.21-.97-7.18-1.53-9.45-1.79-23.73-4.5-26.92-10.73-.92-1.8-.88-3.81.13-5.96,2.86-6.09,10.78-8,17.36-7.19,7.63.94,13.29,5.15,14.5,10.76h24.26c-.37-14.74-12.98-30.74-39.96-31.27-18.98-.39-39.96,8.91-41.14,30.21-.78,14.11,13.35,21.53,19.46,24.07,3.18,1.32,8.26,2.53,13.64,3.82,10.47,2.5,22.33,5.34,25.25,10.08,3.32,5.39,1.73,9.32-.19,11.67-4.83,5.9-16.73,8.26-25.47,5.05-6.26-2.3-9.68-7.07-9.64-13.45h-24.2c.49,9.89,4.52,18.41,11.66,24.66Z"/><path class="cls-2" d="M328.79,15.7h-22.49v27.76c0,6.99.08,13.98,0,20.97-.08,7.42-.14,15.2-2.83,22.31-3.04,8.06-11.03,12.13-19.65,11.91-8.62.22-16.6-3.85-19.65-11.91-2.68-7.11-2.74-14.89-2.83-22.31-.08-6.99,0-13.98,0-20.97V15.7h-23.99v63.97c0,26.04,23.22,41.73,46.46,41.36,23.24.37,46.46-15.32,46.46-41.36V15.7h-1.5Z"/><path class="cls-2" d="M753.07,15.7h-22.49v27.76c0,6.99.08,13.98,0,20.97-.08,7.42-.14,15.2-2.83,22.31-3.04,8.06-11.03,12.13-19.65,11.91-8.62.22-16.6-3.85-19.65-11.91-2.68-7.11-2.74-14.89-2.83-22.31-.08-6.99,0-13.98,0-20.97V15.7h-23.99v63.97c0,26.04,23.22,41.73,46.46,41.36,23.24.37,46.46-15.32,46.46-41.36V15.7h-1.5Z"/><ellipse class="cls-1" cx="770.53" cy="108.53" rx="12.37" ry="12.27"/></svg>